<?xml version="1.0" encoding="UTF-8"?>
<svg xmlns="http://www.w3.org/2000/svg" width="160" height="41" viewBox="0 0 160 41" fill="none">
  <g clip-path="url(#clip0_1814_448)">
    <path d="M40.9664 0H0V41H40.9664V0Z" fill="#2EBEF0"></path>
    <path d="M32.7732 24.6H8.19336V26.6185H32.7732V24.6Z" fill="black"></path>
    <path d="M32.7732 27.6697H8.19336V29.6882H32.7732V27.6697Z" fill="black"></path>
    <path d="M32.7732 30.7816H8.19336V32.8H32.7732V30.7816Z" fill="black"></path>
    <path d="M32.7732 8.20001H8.19336V10.2185H32.7732V8.20001Z" fill="black"></path>
    <path d="M32.7732 11.3118H8.19336V13.3303H32.7732V11.3118Z" fill="black"></path>
    <path d="M32.7732 14.3815H8.19336V16.4H32.7732V14.3815Z" fill="black"></path>
    <path d="M53.6551 8.11591H56.6804L61.4703 19.5118H58.1089L57.3106 17.4933H52.9409L52.1425 19.5118H48.8652L53.6551 8.11591ZM56.3862 15.0123L55.1257 11.8164L53.8652 15.0123H56.3862Z" fill="white"></path>
    <path d="M62.9404 8.19995H65.8396L70.5035 14.1712V8.19995H73.6127V19.5117H70.8816L66.0497 13.3302V19.5117H62.9404V8.19995Z" fill="white"></path>
    <path d="M78.6973 10.9333H75.3359V8.20001H85.2099V10.9333H81.8065V19.4698H78.6973V10.9333Z" fill="white"></path>
    <path d="M87.0586 8.20001H90.1678V19.5118H87.0586V8.20001Z" fill="white"></path>
    <path d="M92.9405 8.19995H97.3102C101.344 8.19995 103.655 10.5128 103.655 13.7928V13.8348C103.655 17.1148 101.302 19.5117 97.2262 19.5117H92.8984V8.19995H92.9405ZM96.0497 10.9333V16.6943H97.3102C99.201 16.6943 100.419 15.643 100.419 13.8348V13.7928C100.419 11.9846 99.1589 10.9333 97.3102 10.9333H96.0497Z" fill="white"></path>
    <path d="M104.958 13.8769C104.958 10.5969 107.563 7.98975 111.05 7.98975C114.538 7.98975 117.101 10.5969 117.101 13.8349V13.8769C117.101 17.1149 114.496 19.7641 111.008 19.7641C107.563 19.7221 104.958 17.1149 104.958 13.8769ZM113.908 13.8769C113.908 12.1949 112.731 10.8072 111.008 10.8072C109.286 10.8072 108.151 12.1949 108.151 13.8349V13.8769C108.151 15.5169 109.328 16.9467 111.05 16.9467C112.773 16.8626 113.908 15.4749 113.908 13.8769Z" fill="white"></path>
    <path d="M119.117 8.20001H123.991C126.848 8.20001 128.655 9.67181 128.655 12.1528V12.1949C128.655 14.8862 126.596 16.2739 123.823 16.2739H122.268V19.5118H119.159V8.20001H119.117ZM123.739 13.7928C124.831 13.7928 125.546 13.2041 125.546 12.321V12.279C125.546 11.3118 124.873 10.8072 123.739 10.8072H122.268V13.7928H123.739Z" fill="white"></path>
    <path d="M130.42 8.20001H133.529V19.5118H130.42V8.20001Z" fill="white"></path>
    <path d="M136.302 8.19995H139.201L143.865 14.1712V8.19995H146.974V19.5117H144.243L139.411 13.3302V19.5117H136.302V8.19995Z" fill="white"></path>
    <path d="M148.949 13.8769C148.949 10.5549 151.512 7.98975 155 7.98975C156.974 7.98975 158.403 8.57846 159.579 9.62975L157.731 11.8585C156.932 11.1856 156.134 10.8072 155 10.8072C153.361 10.8072 152.1 12.1528 152.1 13.8769C152.1 15.7272 153.361 17.0308 155.168 17.0308C155.924 17.0308 156.512 16.8626 156.974 16.5682V15.1805H154.748V12.8677H159.916V17.9559C158.739 18.9651 157.058 19.7221 155 19.7221C151.596 19.7221 148.949 17.2831 148.949 13.8769Z" fill="white"></path>
    <path d="M50.084 23.2543H51.0924L57.1428 30.9077V23.2543H58.1932V32.842H57.3109L51.1344 24.9784V32.842H50.084V23.2543Z" fill="white"></path>
    <path d="M60.21 28.0482C60.21 25.3569 62.1847 23.0441 65.1259 23.0441C68.0251 23.0441 69.9999 25.3149 69.9999 27.9641V28.0062C69.9999 30.6554 68.0251 32.9682 65.0839 32.9682C62.1847 33.0103 60.21 30.6975 60.21 28.0482ZM68.8654 28.0482C68.8654 25.8195 67.2688 24.0534 65.0839 24.0534C62.899 24.0534 61.3444 25.8195 61.3444 28.0062V28.0482C61.3444 30.2349 62.9411 32.0011 65.1259 32.0011C67.3108 32.0011 68.8654 30.2349 68.8654 28.0482Z" fill="white"></path>
    <path d="M72.0166 23.2543H76.1343C77.3107 23.2543 78.2771 23.5907 78.8653 24.2215C79.3275 24.6841 79.6216 25.3569 79.6216 26.1138V26.1559C79.6216 27.7538 78.5292 28.679 77.0166 28.9313L79.9578 32.842H78.6132L75.8401 29.0995H73.109V32.842H72.0166V23.2543ZM76.0502 28.1323C77.4788 28.1323 78.5292 27.3754 78.5292 26.1559V26.1138C78.5292 24.9364 77.6048 24.2215 76.0922 24.2215H73.1511V28.1323H76.0502Z" fill="white"></path>
    <path d="M81.3018 28.0482C81.3018 25.399 83.2345 23.0441 86.0917 23.0441C87.6883 23.0441 88.6967 23.5067 89.6631 24.3057L88.9488 25.1467C88.1925 24.5159 87.3942 24.0534 86.0497 24.0534C83.9068 24.0534 82.3942 25.8616 82.3942 28.0062V28.0482C82.3942 30.319 83.8648 32.0431 86.1757 32.0431C87.2681 32.0431 88.2765 31.6226 88.9488 31.0759V28.679H86.0497V27.7118H89.9992V31.5385C89.1169 32.3375 87.7723 33.0103 86.1337 33.0103C83.1505 33.0103 81.3018 30.7816 81.3018 28.0482Z" fill="white"></path>
    <path d="M92.6465 23.2543H99.5793V24.2215H93.7389V27.5015H98.991V28.4687H93.7389V31.8328H99.6633V32.8H92.6465V23.2543Z" fill="white"></path>
  </g>
  <defs>
    <clipPath id="clip0_1814_448">
      <rect width="160" height="41" fill="white"></rect>
    </clipPath>
  </defs>
</svg>
